<?xml version="1.0" encoding="UTF-8"?>
<svg id="_Слой_2" data-name="Слой 2" xmlns="http://www.w3.org/2000/svg" viewBox="0 0 257.95 85.14">
  <defs>
    <style>
      .cls-1 {
        fill: #fff;
      }

      .cls-2 {
        fill: #323232;
      }

      .cls-3 {
        fill: #7dba28;
      }
    </style>
  </defs>
  <g id="_Слой_1-2" data-name="Слой 1">
    <g>
      <path id="SVGID" class="cls-3" d="m87.92,28.85l-21.34-20.97C61.41,2.81,54.65.06,47.89,0c-6.78.06-13.53,2.81-18.7,7.88L7.85,28.85c-10.47,10.29-10.47,26.97,0,37.26l2.69,2.64c4.8,4.71,29.77,15.48,32.01,16.39v-40.72c0-1.24-.87-2.37-2.04-2.83l-13.31-5.2c-1.11.93-2.54,1.49-4.1,1.49-3.53,0-6.38-2.86-6.38-6.38s2.86-6.38,6.38-6.38c3.26,0,5.95,2.46,6.33,5.6l12.96,5.06c1.77.69,3.62,1.05,5.49,1.07,1.86-.03,3.73-.38,5.49-1.07l12.97-5.06c.39-3.15,3.07-5.6,6.33-5.6,3.53,0,6.38,2.86,6.38,6.38s-2.86,6.38-6.38,6.38c-1.57,0-3-.56-4.1-1.49l-13.32,5.2c-1.19.47-2.04,1.58-2.04,2.83v40.72c2.24-.91,27.22-11.67,32.01-16.39l2.69-2.65c10.5-10.29,10.5-26.96.03-37.25m-40.03-.97c-4.26,0-7.71-3.46-7.71-7.71s3.46-7.71,7.71-7.71,7.7,3.46,7.7,7.71-3.46,7.71-7.7,7.71"/>
      <g>
        <g>
          <rect class="cls-2" x="122.57" y="9.88" width="4.45" height="27.75"/>
          <polygon class="cls-2" points="138.58 37.63 143.01 37.63 143.01 13.78 151.22 13.84 151.22 9.88 130.43 9.88 130.43 13.84 138.58 13.78 138.58 37.63"/>
          <path class="cls-2" d="m168.87,27.65h4.85c1.48,0,2.82-.23,4.01-.7s2.2-1.1,3.04-1.92c.84-.8,1.49-1.76,1.94-2.85.47-1.07.69-2.24.69-3.51s-.21-2.38-.65-3.47c-.43-1.07-1.05-2.01-1.85-2.81-.8-.79-1.79-1.42-2.95-1.86-1.16-.47-2.5-.69-3.97-.69h-9.55v27.75h4.45v-9.95h-.01Zm-.01-13.81h5.1c1.63,0,2.86.43,3.71,1.31s1.28,2.06,1.28,3.55c0,1.57-.47,2.78-1.4,3.68-.92.89-2.2,1.33-3.84,1.33h-4.85v-9.86Z"/>
          <path class="cls-2" d="m197.65,9.88h-4.53l-10.12,27.75h4.62l2.38-6.83h10.74l2.42,6.83h4.62l-10.13-27.75Zm-6.28,17.07l2.06-5.89,1.9-6.57h.08l1.9,6.57,2.04,5.89h-7.99Z"/>
          <path class="cls-2" d="m229.41,23.38c1.1-1.42,1.64-3.08,1.64-5.01,0-1.19-.21-2.29-.65-3.31-.43-1.02-1.05-1.93-1.85-2.69-.8-.76-1.81-1.38-3.02-1.81s-2.55-.66-4.05-.66h-10.16v27.75h4.45v-10.61h4.83l6.17,10.61h4.76l-6.54-11.29c1.84-.58,3.3-1.58,4.4-2.98Zm-13.63-.32v-9.22h5.73c1.7,0,2.96.41,3.82,1.24.85.83,1.28,1.93,1.28,3.29s-.44,2.56-1.38,3.42c-.92.85-2.2,1.27-3.84,1.27h-5.6Z"/>
          <rect class="cls-2" x="235.83" y="9.88" width="4.45" height="27.75"/>
          <polygon class="cls-2" points="257.95 37.63 245.92 22.88 257.58 9.89 252.47 9.89 241.85 21.69 241.85 24.24 252.67 37.63 257.95 37.63"/>
        </g>
        <g>
          <rect class="cls-3" x="122.57" y="43.72" width="135.38" height="31.57" rx="5.5" ry="5.5"/>
          <g>
            <path class="cls-1" d="m142.21,68.98h-3.09l-8.18-9.09v9.09h-2.52v-18.95h2.52v8.55l7.9-8.55h3.09l-8.37,9.2,8.64,9.74Z"/>
            <path class="cls-1" d="m156.99,50.03h2.49v18.95h-2.49v-8.53h-9.2v8.53h-2.52v-18.95h2.52v8.04h9.2v-8.04Z"/>
            <path class="cls-1" d="m180.13,66.46c-1.91,1.91-4.24,2.87-6.98,2.87s-5.06-.96-6.96-2.87-2.84-4.23-2.84-6.96.95-5.07,2.84-6.97c1.9-1.9,4.21-2.85,6.96-2.85s5.07.95,6.97,2.85c1.9,1.91,2.86,4.23,2.86,6.97s-.95,5.04-2.84,6.96Zm-12.18-1.73c1.39,1.43,3.12,2.14,5.2,2.14s3.81-.71,5.21-2.13c1.4-1.42,2.1-3.16,2.1-5.24s-.7-3.85-2.1-5.27c-1.4-1.42-3.14-2.12-5.21-2.12s-3.81.71-5.21,2.12c-1.4,1.42-2.1,3.17-2.1,5.27s.7,3.82,2.11,5.22Z"/>
            <path class="cls-1" d="m198.05,68.98l-4.25-7.25h-4.47v7.25h-2.52v-18.95h7.58c1.62,0,3.01.57,4.17,1.72s1.73,2.53,1.73,4.16c0,1.23-.37,2.35-1.1,3.36-.73,1.01-1.67,1.72-2.83,2.14l4.47,7.58h-2.79Zm-8.72-16.59v7.07h5.06c.94,0,1.74-.35,2.4-1.04.66-.69.99-1.53.99-2.5s-.33-1.8-.99-2.49c-.66-.69-1.46-1.03-2.4-1.03h-5.06Z"/>
            <path class="cls-1" d="m206.69,66.6h8.8v2.38h-11.32v-18.95h11.18v2.38h-8.66v5.82h7.99v2.36h-7.99v6.01Z"/>
            <path class="cls-1" d="m221.33,66.6h9.39v2.38h-12.37v-2.19l9.15-14.37h-8.91v-2.38h11.91v2.17l-9.18,14.4Z"/>
            <path class="cls-1" d="m252.08,50.03v18.95h-2.49v-14.81l-6.2,10.31h-.32l-6.2-10.29v14.78h-2.52v-18.95h2.84l6.04,10.02,6.01-10.02h2.84Z"/>
          </g>
        </g>
      </g>
    </g>
  </g>
</svg>